<svg width="430" height="195" viewBox="0 0 430 195" fill="none" xmlns="http://www.w3.org/2000/svg">
<path d="M59.5 45.5H34V40.5H27V51.5H52.5C57 51.5 59.5 54 59.5 57.5V94.5C59.5 99 56 101 52.5 101H9C3.5 101 1 98.5 1 94.5V76H27V81H34V70.5H9C3.5 70.5 1 68 1 63V27C1 24 3.5 20.5 8 20.5H52.5C57 20.5 59.5 24.5 59.5 27V45.5Z" fill="white" stroke="white" stroke-linejoin="round"/>
<path d="M66.5 101V0.5H92.5V20.5H117.5C122.5 20.5 125.5 24 125.5 28V113H150C154.5 113 158.5 116 158.5 120.5V193.5H132V133H125.5V193.5H99.5V40.5H92.5V101H66.5Z" fill="white" stroke="white" stroke-linejoin="round"/>
<mask id="path-3-inside-1_274_36" fill="white">
<path fill-rule="evenodd" clip-rule="evenodd" d="M230.5 138.5H256.5V133.5H263.5V144.5H239.5C233.5 144.5 230.5 148 230.5 151.5V186.5C230.5 190 234 194 239 194H289.5V121.5C289.5 117 287 113.5 281.5 113.5H239.5C233.5 113.5 230.5 117.5 230.5 121V138.5ZM261.338 176.054C261.733 175.845 271 170.786 271 164.536C270.998 163.068 270.415 161.661 269.377 160.623C268.339 159.585 266.932 159.002 265.464 159C263.621 159 262.006 159.793 261 161.133C259.994 159.793 258.379 159 256.536 159C255.068 159.002 253.661 159.585 252.623 160.623C251.585 161.661 251.002 163.068 251 164.536C251 170.786 260.267 175.845 260.662 176.054C260.766 176.11 260.882 176.139 261 176.139C261.118 176.139 261.234 176.11 261.338 176.054Z"/>
</mask>
<path fill-rule="evenodd" clip-rule="evenodd" d="M230.5 138.5H256.5V133.5H263.5V144.5H239.5C233.5 144.5 230.5 148 230.5 151.5V186.5C230.5 190 234 194 239 194H289.5V121.5C289.5 117 287 113.5 281.5 113.5H239.5C233.5 113.5 230.5 117.5 230.5 121V138.5ZM261.338 176.054C261.733 175.845 271 170.786 271 164.536C270.998 163.068 270.415 161.661 269.377 160.623C268.339 159.585 266.932 159.002 265.464 159C263.621 159 262.006 159.793 261 161.133C259.994 159.793 258.379 159 256.536 159C255.068 159.002 253.661 159.585 252.623 160.623C251.585 161.661 251.002 163.068 251 164.536C251 170.786 260.267 175.845 260.662 176.054C260.766 176.11 260.882 176.139 261 176.139C261.118 176.139 261.234 176.11 261.338 176.054Z" fill="white"/>
<path d="M230.5 138.5H229.5C229.5 139.052 229.948 139.5 230.5 139.5V138.5ZM256.5 138.5V139.5C257.052 139.5 257.5 139.052 257.5 138.5H256.5ZM256.5 133.5V132.5C255.948 132.5 255.5 132.948 255.5 133.5H256.5ZM263.5 133.5H264.5C264.5 132.948 264.052 132.5 263.5 132.5V133.5ZM263.5 144.5V145.5C264.052 145.5 264.5 145.052 264.5 144.5H263.5ZM289.5 194V195C290.052 195 290.5 194.552 290.5 194H289.5ZM271 164.536L272 164.536L272 164.535L271 164.536ZM261.338 176.054L260.87 175.17L260.865 175.173L261.338 176.054ZM260.662 176.054L261.135 175.173L261.129 175.17L260.662 176.054ZM251 164.536L250 164.535V164.536H251ZM256.536 159V158L256.535 158L256.536 159ZM261 161.133L260.2 161.733L261 162.799L261.8 161.733L261 161.133ZM265.464 159L265.465 158H265.464V159ZM230.5 139.5H256.5V137.5H230.5V139.5ZM257.5 138.5V133.5H255.5V138.5H257.5ZM256.5 134.5H263.5V132.5H256.5V134.5ZM262.5 133.5V144.5H264.5V133.5H262.5ZM263.5 143.5H239.5V145.5H263.5V143.5ZM239.5 143.5C233.077 143.5 229.5 147.326 229.5 151.5H231.5C231.5 148.674 233.923 145.5 239.5 145.5V143.5ZM229.5 151.5V186.5H231.5V151.5H229.5ZM229.5 186.5C229.5 190.592 233.488 195 239 195V193C234.512 193 231.5 189.408 231.5 186.5H229.5ZM239 195H289.5V193H239V195ZM290.5 194V121.5H288.5V194H290.5ZM290.5 121.5C290.5 119.074 289.825 116.808 288.301 115.138C286.762 113.453 284.472 112.5 281.5 112.5V114.5C284.028 114.5 285.738 115.297 286.824 116.487C287.925 117.692 288.5 119.426 288.5 121.5H290.5ZM281.5 112.5H239.5V114.5H281.5V112.5ZM239.5 112.5C232.988 112.5 229.5 116.908 229.5 121H231.5C231.5 118.092 234.012 114.5 239.5 114.5V112.5ZM229.5 121V138.5H231.5V121H229.5ZM270 164.536C270 167.193 267.995 169.761 265.658 171.808C263.374 173.808 261.034 175.083 260.871 175.17L261.806 176.937C262.037 176.815 264.528 175.456 266.976 173.312C269.371 171.215 272 168.129 272 164.536H270ZM260.865 175.173C260.906 175.151 260.953 175.139 261 175.139V177.139C261.283 177.139 261.563 177.069 261.812 176.934L260.865 175.173ZM261 175.139C261.047 175.139 261.094 175.151 261.135 175.173L260.188 176.934C260.437 177.069 260.717 177.139 261 177.139V175.139ZM261.129 175.17C260.966 175.083 258.626 173.808 256.342 171.808C254.005 169.761 252 167.193 252 164.536H250C250 168.129 252.629 171.215 255.024 173.312C257.472 175.456 259.963 176.815 260.194 176.937L261.129 175.17ZM252 164.537C252.001 163.334 252.48 162.181 253.33 161.33L251.916 159.916C250.691 161.141 250.002 162.802 250 164.535L252 164.537ZM253.33 161.33C254.181 160.48 255.334 160.001 256.537 160L256.535 158C254.802 158.002 253.141 158.691 251.916 159.916L253.33 161.33ZM256.536 160C258.087 160 259.396 160.662 260.2 161.733L261.8 160.533C260.592 158.924 258.672 158 256.536 158V160ZM261.8 161.733C262.604 160.662 263.913 160 265.464 160V158C263.328 158 261.408 158.924 260.2 160.533L261.8 161.733ZM265.463 160C266.666 160.001 267.819 160.48 268.67 161.33L270.084 159.916C268.859 158.691 267.198 158.002 265.465 158L265.463 160ZM268.67 161.33C269.52 162.181 269.999 163.334 270 164.537L272 164.535C271.998 162.802 271.309 161.141 270.084 159.916L268.67 161.33Z" fill="white" mask="url(#path-3-inside-1_274_36)"/>
<path fill-rule="evenodd" clip-rule="evenodd" d="M198 101V20.5H248.5C254 20.5 257 24.5 257 29.5V55.5C257 57.5 255 61 251.5 61C255 61 256.331 62.5996 257 66V101H231V69H224.5V101H198ZM225 40.5V52.5H231V40.5H225Z" fill="white" stroke="white" stroke-linejoin="round"/>
<path fill-rule="evenodd" clip-rule="evenodd" d="M294.5 194V113.5H345C350.5 113.5 353.5 117.5 353.5 122.5V148.5C353.5 150.5 351.5 154 348 154C351.5 154 352.831 155.6 353.5 159V194H327.5V162H321V194H294.5ZM321.5 133.5V145.5H327.5V133.5H321.5Z" fill="white" stroke="white" stroke-linejoin="round"/>
<path fill-rule="evenodd" clip-rule="evenodd" d="M263.5 29.5V94C263.5 98 266 101.5 270.5 101.5H315.641C319.5 101.5 322.5 99 322.5 94.5V77H296.5V82H289.5V71.5H322.5V29.5C322.5 25.5 319.5 21 315.641 21H270.5C266 21 263.5 25 263.5 29.5ZM296 41H290V53H296V41Z" fill="white" stroke="white" stroke-linejoin="round"/>
<path fill-rule="evenodd" clip-rule="evenodd" d="M165.5 121.5V186C165.5 190 168 193.5 172.5 193.5H217.641C221.5 193.5 224.5 191 224.5 186.5V169H198.5V174H191.5V163.5H224.5V121.5C224.5 117.5 221.5 113 217.641 113H172.5C168 113 165.5 117 165.5 121.5ZM198 133H192V145H198V133Z" fill="white" stroke="white" stroke-linejoin="round"/>
<path d="M367 118V113H392.5V118H425.5V137.5H392.5V174H399.5V143.5H425.5V185.5C425.5 191 422.5 193.5 416.5 193.5H375.5C369.5 193.5 367 190.5 367 185.5V137.5H360V118H367Z" fill="white" stroke="white" stroke-linejoin="round"/>
<path d="M422.955 55.3117C415.962 82.3345 370.235 93.8389 368.295 94.3007C367.783 94.4263 367.247 94.4228 366.736 94.2907C366.226 94.1585 365.756 93.9018 365.369 93.5435C363.896 92.1986 329.489 59.9572 336.482 32.9344C338.132 26.5907 342.23 21.1602 347.878 17.8343C353.526 14.5084 360.263 13.5588 366.61 15.1937C374.582 17.2566 380.675 22.4908 383.526 29.4111C389.376 24.7425 397.243 23.1207 405.214 25.1836C411.558 26.8328 416.989 30.9311 420.314 36.5793C423.64 42.2275 424.59 48.9643 422.955 55.3117Z" fill="#6A77EB"/>
<mask id="path-11-inside-2_274_36" fill="white">
<path fill-rule="evenodd" clip-rule="evenodd" d="M132.5 45.5H158.5V40.5H165.5V51.5H141.5C135.5 51.5 132.5 55 132.5 58.5V93.5C132.5 97 136 101 141 101H191.5V28.5C191.5 24 189 20.5 183.5 20.5H141.5C135.5 20.5 132.5 24.5 132.5 28V45.5ZM163.338 83.0536C163.733 82.8446 173 77.7857 173 71.5357C172.998 70.0681 172.415 68.661 171.377 67.6232C170.339 66.5854 168.932 66.0017 167.464 66C165.621 66 164.006 66.7929 163 68.133C161.994 66.7929 160.379 66 158.536 66C157.068 66.0017 155.661 66.5854 154.623 67.6232C153.585 68.661 153.002 70.0681 153 71.5357C153 77.7857 162.267 82.8446 162.662 83.0536C162.766 83.1095 162.882 83.1388 163 83.1388C163.118 83.1388 163.234 83.1095 163.338 83.0536Z"/>
</mask>
<path fill-rule="evenodd" clip-rule="evenodd" d="M132.5 45.5H158.5V40.5H165.5V51.5H141.5C135.5 51.5 132.5 55 132.5 58.5V93.5C132.5 97 136 101 141 101H191.5V28.5C191.5 24 189 20.5 183.5 20.5H141.5C135.5 20.5 132.5 24.5 132.5 28V45.5ZM163.338 83.0536C163.733 82.8446 173 77.7857 173 71.5357C172.998 70.0681 172.415 68.661 171.377 67.6232C170.339 66.5854 168.932 66.0017 167.464 66C165.621 66 164.006 66.7929 163 68.133C161.994 66.7929 160.379 66 158.536 66C157.068 66.0017 155.661 66.5854 154.623 67.6232C153.585 68.661 153.002 70.0681 153 71.5357C153 77.7857 162.267 82.8446 162.662 83.0536C162.766 83.1095 162.882 83.1388 163 83.1388C163.118 83.1388 163.234 83.1095 163.338 83.0536Z" fill="white"/>
<path d="M132.5 45.5H131.5C131.5 46.0523 131.948 46.5 132.5 46.5V45.5ZM158.5 45.5V46.5C159.052 46.5 159.5 46.0523 159.5 45.5H158.5ZM158.5 40.5V39.5C157.948 39.5 157.5 39.9477 157.5 40.5H158.5ZM165.5 40.5H166.5C166.5 39.9477 166.052 39.5 165.5 39.5V40.5ZM165.5 51.5V52.5C166.052 52.5 166.5 52.0523 166.5 51.5H165.5ZM191.5 101V102C192.052 102 192.5 101.552 192.5 101H191.5ZM173 71.5357L174 71.5357L174 71.5346L173 71.5357ZM163.338 83.0536L162.87 82.1698L162.865 82.1729L163.338 83.0536ZM162.662 83.0536L163.135 82.1729L163.129 82.1698L162.662 83.0536ZM153 71.5357L152 71.5346V71.5357H153ZM158.536 66V65L158.535 65L158.536 66ZM163 68.133L162.2 68.7335L163 69.7985L163.8 68.7335L163 68.133ZM167.464 66L167.465 65H167.464V66ZM132.5 46.5H158.5V44.5H132.5V46.5ZM159.5 45.5V40.5H157.5V45.5H159.5ZM158.5 41.5H165.5V39.5H158.5V41.5ZM164.5 40.5V51.5H166.5V40.5H164.5ZM165.5 50.5H141.5V52.5H165.5V50.5ZM141.5 50.5C135.077 50.5 131.5 54.3265 131.5 58.5H133.5C133.5 55.6735 135.923 52.5 141.5 52.5V50.5ZM131.5 58.5V93.5H133.5V58.5H131.5ZM131.5 93.5C131.5 97.592 135.488 102 141 102V100C136.512 100 133.5 96.408 133.5 93.5H131.5ZM141 102H191.5V100H141V102ZM192.5 101V28.5H190.5V101H192.5ZM192.5 28.5C192.5 26.0737 191.825 23.8077 190.301 22.1382C188.762 20.4532 186.472 19.5 183.5 19.5V21.5C186.028 21.5 187.738 22.2968 188.824 23.4868C189.925 24.6923 190.5 26.4263 190.5 28.5H192.5ZM183.5 19.5H141.5V21.5H183.5V19.5ZM141.5 19.5C134.988 19.5 131.5 23.908 131.5 28H133.5C133.5 25.092 136.012 21.5 141.5 21.5V19.5ZM131.5 28V45.5H133.5V28H131.5ZM172 71.5357C172 74.1928 169.995 76.7612 167.658 78.8078C165.374 80.8081 163.034 82.0832 162.871 82.1698L163.806 83.9374C164.037 83.815 166.528 82.4562 168.976 80.3123C171.371 78.2147 174 75.1286 174 71.5357H172ZM162.865 82.1729C162.906 82.1505 162.953 82.1388 163 82.1388V84.1388C163.283 84.1388 163.563 84.0685 163.812 83.9342L162.865 82.1729ZM163 82.1388C163.047 82.1388 163.094 82.1505 163.135 82.1729L162.188 83.9342C162.437 84.0685 162.717 84.1388 163 84.1388V82.1388ZM163.129 82.1698C162.966 82.0832 160.626 80.8081 158.342 78.8078C156.005 76.7612 154 74.1928 154 71.5357H152C152 75.1286 154.629 78.2147 157.024 80.3123C159.472 82.4562 161.963 83.815 162.194 83.9374L163.129 82.1698ZM154 71.5368C154.001 70.334 154.48 69.1808 155.33 68.3303L153.916 66.9161C152.691 68.1411 152.002 69.8021 152 71.5346L154 71.5368ZM155.33 68.3303C156.181 67.4798 157.334 67.0014 158.537 67L158.535 65C156.802 65.002 155.141 65.691 153.916 66.9161L155.33 68.3303ZM158.536 67C160.087 67 161.396 67.6622 162.2 68.7335L163.8 67.5326C162.592 65.9235 160.672 65 158.536 65V67ZM163.8 68.7335C164.604 67.6622 165.913 67 167.464 67V65C165.328 65 163.408 65.9235 162.2 67.5326L163.8 68.7335ZM167.463 67C168.666 67.0014 169.819 67.4798 170.67 68.3303L172.084 66.9161C170.859 65.691 169.198 65.002 167.465 65L167.463 67ZM170.67 68.3303C171.52 69.1808 171.999 70.334 172 71.5368L174 71.5346C173.998 69.8021 173.309 68.1411 172.084 66.9161L170.67 68.3303Z" fill="white" mask="url(#path-11-inside-2_274_36)"/>
</svg>
