<svg width="429" height="195" viewBox="0 0 429 195" fill="none" xmlns="http://www.w3.org/2000/svg">
<path d="M59 45.5H33.5V40.5H26.5V51.5H52C56.5 51.5 59 54 59 57.5V94.5C59 99 55.5 101 52 101H8.5C3 101 0.5 98.5 0.5 94.5V76H26.5V81H33.5V70.5H8.5C3 70.5 0.5 68 0.5 63V27C0.5 24 3 20.5 7.5 20.5H52C56.5 20.5 59 24.5 59 27V45.5Z" fill="white" stroke="white" stroke-linejoin="round"/>
<path d="M66 101V0.5H92V20.5H117C122 20.5 125 24 125 28V113H149.5C154 113 158 116 158 120.5V193.5H131.5V133H125V193.5H99V40.5H92V101H66Z" fill="white" stroke="white" stroke-linejoin="round"/>
<mask id="path-3-inside-1_248_1263" fill="white">
<path fill-rule="evenodd" clip-rule="evenodd" d="M230 138.5H256V133.5H263V144.5H239C233 144.5 230 148 230 151.5V186.5C230 190 233.5 194 238.5 194H289V121.5C289 117 286.5 113.5 281 113.5H239C233 113.5 230 117.5 230 121V138.5ZM260.838 176.054C261.233 175.845 270.5 170.786 270.5 164.536C270.498 163.068 269.915 161.661 268.877 160.623C267.839 159.585 266.432 159.002 264.964 159C263.121 159 261.506 159.793 260.5 161.133C259.494 159.793 257.879 159 256.036 159C254.568 159.002 253.161 159.585 252.123 160.623C251.085 161.661 250.502 163.068 250.5 164.536C250.5 170.786 259.767 175.845 260.162 176.054C260.266 176.11 260.382 176.139 260.5 176.139C260.618 176.139 260.734 176.11 260.838 176.054Z"/>
</mask>
<path fill-rule="evenodd" clip-rule="evenodd" d="M230 138.5H256V133.5H263V144.5H239C233 144.5 230 148 230 151.5V186.5C230 190 233.5 194 238.5 194H289V121.5C289 117 286.5 113.5 281 113.5H239C233 113.5 230 117.5 230 121V138.5ZM260.838 176.054C261.233 175.845 270.5 170.786 270.5 164.536C270.498 163.068 269.915 161.661 268.877 160.623C267.839 159.585 266.432 159.002 264.964 159C263.121 159 261.506 159.793 260.5 161.133C259.494 159.793 257.879 159 256.036 159C254.568 159.002 253.161 159.585 252.123 160.623C251.085 161.661 250.502 163.068 250.5 164.536C250.5 170.786 259.767 175.845 260.162 176.054C260.266 176.11 260.382 176.139 260.5 176.139C260.618 176.139 260.734 176.11 260.838 176.054Z" fill="white"/>
<path d="M230 138.5H229C229 139.052 229.448 139.5 230 139.5V138.5ZM256 138.5V139.5C256.552 139.5 257 139.052 257 138.5H256ZM256 133.5V132.5C255.448 132.5 255 132.948 255 133.5H256ZM263 133.5H264C264 132.948 263.552 132.5 263 132.5V133.5ZM263 144.5V145.5C263.552 145.5 264 145.052 264 144.5H263ZM289 194V195C289.552 195 290 194.552 290 194H289ZM270.5 164.536L271.5 164.536L271.5 164.535L270.5 164.536ZM260.838 176.054L260.37 175.17L260.365 175.173L260.838 176.054ZM260.162 176.054L260.635 175.173L260.629 175.17L260.162 176.054ZM250.5 164.536L249.5 164.535V164.536H250.5ZM256.036 159V158L256.035 158L256.036 159ZM260.5 161.133L259.7 161.733L260.5 162.799L261.3 161.733L260.5 161.133ZM264.964 159L264.965 158H264.964V159ZM230 139.5H256V137.5H230V139.5ZM257 138.5V133.5H255V138.5H257ZM256 134.5H263V132.5H256V134.5ZM262 133.5V144.5H264V133.5H262ZM263 143.5H239V145.5H263V143.5ZM239 143.5C232.577 143.5 229 147.326 229 151.5H231C231 148.674 233.423 145.5 239 145.5V143.5ZM229 151.5V186.5H231V151.5H229ZM229 186.5C229 190.592 232.988 195 238.5 195V193C234.012 193 231 189.408 231 186.5H229ZM238.5 195H289V193H238.5V195ZM290 194V121.5H288V194H290ZM290 121.5C290 119.074 289.325 116.808 287.801 115.138C286.262 113.453 283.972 112.5 281 112.5V114.5C283.528 114.5 285.238 115.297 286.324 116.487C287.425 117.692 288 119.426 288 121.5H290ZM281 112.5H239V114.5H281V112.5ZM239 112.5C232.488 112.5 229 116.908 229 121H231C231 118.092 233.512 114.5 239 114.5V112.5ZM229 121V138.5H231V121H229ZM269.5 164.536C269.5 167.193 267.495 169.761 265.158 171.808C262.874 173.808 260.534 175.083 260.371 175.17L261.306 176.937C261.537 176.815 264.028 175.456 266.476 173.312C268.871 171.215 271.5 168.129 271.5 164.536H269.5ZM260.365 175.173C260.406 175.151 260.453 175.139 260.5 175.139V177.139C260.783 177.139 261.063 177.069 261.312 176.934L260.365 175.173ZM260.5 175.139C260.547 175.139 260.594 175.151 260.635 175.173L259.688 176.934C259.937 177.069 260.217 177.139 260.5 177.139V175.139ZM260.629 175.17C260.466 175.083 258.126 173.808 255.842 171.808C253.505 169.761 251.5 167.193 251.5 164.536H249.5C249.5 168.129 252.129 171.215 254.524 173.312C256.972 175.456 259.463 176.815 259.694 176.937L260.629 175.17ZM251.5 164.537C251.501 163.334 251.98 162.181 252.83 161.33L251.416 159.916C250.191 161.141 249.502 162.802 249.5 164.535L251.5 164.537ZM252.83 161.33C253.681 160.48 254.834 160.001 256.037 160L256.035 158C254.302 158.002 252.641 158.691 251.416 159.916L252.83 161.33ZM256.036 160C257.587 160 258.896 160.662 259.7 161.733L261.3 160.533C260.092 158.924 258.172 158 256.036 158V160ZM261.3 161.733C262.104 160.662 263.413 160 264.964 160V158C262.828 158 260.908 158.924 259.7 160.533L261.3 161.733ZM264.963 160C266.166 160.001 267.319 160.48 268.17 161.33L269.584 159.916C268.359 158.691 266.698 158.002 264.965 158L264.963 160ZM268.17 161.33C269.02 162.181 269.499 163.334 269.5 164.537L271.5 164.535C271.498 162.802 270.809 161.141 269.584 159.916L268.17 161.33Z" fill="white" mask="url(#path-3-inside-1_248_1263)"/>
<path fill-rule="evenodd" clip-rule="evenodd" d="M197.5 101V20.5H248C253.5 20.5 256.5 24.5 256.5 29.5V55.5C256.5 57.5 254.5 61 251 61C254.5 61 255.831 62.5996 256.5 66V101H230.5V69H224V101H197.5ZM224.5 40.5V52.5H230.5V40.5H224.5Z" fill="white" stroke="white" stroke-linejoin="round"/>
<path fill-rule="evenodd" clip-rule="evenodd" d="M294 194V113.5H344.5C350 113.5 353 117.5 353 122.5V148.5C353 150.5 351 154 347.5 154C351 154 352.331 155.6 353 159V194H327V162H320.5V194H294ZM321 133.5V145.5H327V133.5H321Z" fill="white" stroke="white" stroke-linejoin="round"/>
<path fill-rule="evenodd" clip-rule="evenodd" d="M263 29.5V94C263 98 265.5 101.5 270 101.5H315.141C319 101.5 322 99 322 94.5V77H296V82H289V71.5H322V29.5C322 25.5 319 21 315.141 21H270C265.5 21 263 25 263 29.5ZM295.5 41H289.5V53H295.5V41Z" fill="white" stroke="white" stroke-linejoin="round"/>
<path fill-rule="evenodd" clip-rule="evenodd" d="M165 121.5V186C165 190 167.5 193.5 172 193.5H217.141C221 193.5 224 191 224 186.5V169H198V174H191V163.5H224V121.5C224 117.5 221 113 217.141 113H172C167.5 113 165 117 165 121.5ZM197.5 133H191.5V145H197.5V133Z" fill="white" stroke="white" stroke-linejoin="round"/>
<path d="M366.5 118V113H392V118H425V137.5H392V174H399V143.5H425V185.5C425 191 422 193.5 416 193.5H375C369 193.5 366.5 190.5 366.5 185.5V137.5H359.5V118H366.5Z" fill="white" stroke="white" stroke-linejoin="round"/>
<path d="M422.455 55.3117C415.462 82.3345 369.735 93.8389 367.795 94.3007C367.283 94.4263 366.747 94.4228 366.236 94.2907C365.726 94.1585 365.256 93.9018 364.869 93.5435C363.396 92.1986 328.989 59.9572 335.982 32.9344C337.632 26.5907 341.73 21.1602 347.378 17.8343C353.026 14.5084 359.763 13.5588 366.11 15.1937C374.082 17.2566 380.175 22.4908 383.026 29.4111C388.876 24.7425 396.743 23.1207 404.714 25.1836C411.058 26.8328 416.489 30.9311 419.814 36.5793C423.14 42.2275 424.09 48.9643 422.455 55.3117Z" fill="#EB6AAF"/>
<path d="M422.455 55.3117C415.462 82.3345 369.735 93.8389 367.795 94.3007C367.283 94.4263 366.747 94.4228 366.236 94.2907C365.726 94.1585 365.256 93.9018 364.869 93.5435C363.396 92.1986 328.989 59.9572 335.982 32.9344C337.632 26.5907 341.73 21.1602 347.378 17.8343C353.026 14.5084 359.763 13.5588 366.11 15.1937C374.082 17.2566 380.175 22.4908 383.026 29.4111C388.876 24.7425 396.743 23.1207 404.714 25.1836C411.058 26.8328 416.489 30.9311 419.814 36.5793C423.14 42.2275 424.09 48.9643 422.455 55.3117Z" fill="#EB6AAF"/>
<mask id="path-12-inside-2_248_1263" fill="white">
<path fill-rule="evenodd" clip-rule="evenodd" d="M132 45.5H158V40.5H165V51.5H141C135 51.5 132 55 132 58.5V93.5C132 97 135.5 101 140.5 101H191V28.5C191 24 188.5 20.5 183 20.5H141C135 20.5 132 24.5 132 28V45.5ZM162.838 83.0536C163.233 82.8446 172.5 77.7857 172.5 71.5357C172.498 70.0681 171.915 68.661 170.877 67.6232C169.839 66.5854 168.432 66.0017 166.964 66C165.121 66 163.506 66.7929 162.5 68.133C161.494 66.7929 159.879 66 158.036 66C156.568 66.0017 155.161 66.5854 154.123 67.6232C153.085 68.661 152.502 70.0681 152.5 71.5357C152.5 77.7857 161.767 82.8446 162.162 83.0536C162.266 83.1095 162.382 83.1388 162.5 83.1388C162.618 83.1388 162.734 83.1095 162.838 83.0536Z"/>
</mask>
<path fill-rule="evenodd" clip-rule="evenodd" d="M132 45.5H158V40.5H165V51.5H141C135 51.5 132 55 132 58.5V93.5C132 97 135.5 101 140.5 101H191V28.5C191 24 188.5 20.5 183 20.5H141C135 20.5 132 24.5 132 28V45.5ZM162.838 83.0536C163.233 82.8446 172.5 77.7857 172.5 71.5357C172.498 70.0681 171.915 68.661 170.877 67.6232C169.839 66.5854 168.432 66.0017 166.964 66C165.121 66 163.506 66.7929 162.5 68.133C161.494 66.7929 159.879 66 158.036 66C156.568 66.0017 155.161 66.5854 154.123 67.6232C153.085 68.661 152.502 70.0681 152.5 71.5357C152.5 77.7857 161.767 82.8446 162.162 83.0536C162.266 83.1095 162.382 83.1388 162.5 83.1388C162.618 83.1388 162.734 83.1095 162.838 83.0536Z" fill="white"/>
<path d="M132 45.5H131C131 46.0523 131.448 46.5 132 46.5V45.5ZM158 45.5V46.5C158.552 46.5 159 46.0523 159 45.5H158ZM158 40.5V39.5C157.448 39.5 157 39.9477 157 40.5H158ZM165 40.5H166C166 39.9477 165.552 39.5 165 39.5V40.5ZM165 51.5V52.5C165.552 52.5 166 52.0523 166 51.5H165ZM191 101V102C191.552 102 192 101.552 192 101H191ZM172.5 71.5357L173.5 71.5357L173.5 71.5346L172.5 71.5357ZM162.838 83.0536L162.37 82.1698L162.365 82.1729L162.838 83.0536ZM162.162 83.0536L162.635 82.1729L162.629 82.1698L162.162 83.0536ZM152.5 71.5357L151.5 71.5346V71.5357H152.5ZM158.036 66V65L158.035 65L158.036 66ZM162.5 68.133L161.7 68.7335L162.5 69.7985L163.3 68.7335L162.5 68.133ZM166.964 66L166.965 65H166.964V66ZM132 46.5H158V44.5H132V46.5ZM159 45.5V40.5H157V45.5H159ZM158 41.5H165V39.5H158V41.5ZM164 40.5V51.5H166V40.5H164ZM165 50.5H141V52.5H165V50.5ZM141 50.5C134.577 50.5 131 54.3265 131 58.5H133C133 55.6735 135.423 52.5 141 52.5V50.5ZM131 58.5V93.5H133V58.5H131ZM131 93.5C131 97.592 134.988 102 140.5 102V100C136.012 100 133 96.408 133 93.5H131ZM140.5 102H191V100H140.5V102ZM192 101V28.5H190V101H192ZM192 28.5C192 26.0737 191.325 23.8077 189.801 22.1382C188.262 20.4532 185.972 19.5 183 19.5V21.5C185.528 21.5 187.238 22.2968 188.324 23.4868C189.425 24.6923 190 26.4263 190 28.5H192ZM183 19.5H141V21.5H183V19.5ZM141 19.5C134.488 19.5 131 23.908 131 28H133C133 25.092 135.512 21.5 141 21.5V19.5ZM131 28V45.5H133V28H131ZM171.5 71.5357C171.5 74.1928 169.495 76.7612 167.158 78.8078C164.874 80.8081 162.534 82.0832 162.371 82.1698L163.306 83.9374C163.537 83.815 166.028 82.4562 168.476 80.3123C170.871 78.2147 173.5 75.1286 173.5 71.5357H171.5ZM162.365 82.1729C162.406 82.1505 162.453 82.1388 162.5 82.1388V84.1388C162.783 84.1388 163.063 84.0685 163.312 83.9342L162.365 82.1729ZM162.5 82.1388C162.547 82.1388 162.594 82.1505 162.635 82.1729L161.688 83.9342C161.937 84.0685 162.217 84.1388 162.5 84.1388V82.1388ZM162.629 82.1698C162.466 82.0832 160.126 80.8081 157.842 78.8078C155.505 76.7612 153.5 74.1928 153.5 71.5357H151.5C151.5 75.1286 154.129 78.2147 156.524 80.3123C158.972 82.4562 161.463 83.815 161.694 83.9374L162.629 82.1698ZM153.5 71.5368C153.501 70.334 153.98 69.1808 154.83 68.3303L153.416 66.9161C152.191 68.1411 151.502 69.8021 151.5 71.5346L153.5 71.5368ZM154.83 68.3303C155.681 67.4798 156.834 67.0014 158.037 67L158.035 65C156.302 65.002 154.641 65.691 153.416 66.9161L154.83 68.3303ZM158.036 67C159.587 67 160.896 67.6622 161.7 68.7335L163.3 67.5326C162.092 65.9235 160.172 65 158.036 65V67ZM163.3 68.7335C164.104 67.6622 165.413 67 166.964 67V65C164.828 65 162.908 65.9235 161.7 67.5326L163.3 68.7335ZM166.963 67C168.166 67.0014 169.319 67.4798 170.17 68.3303L171.584 66.9161C170.359 65.691 168.698 65.002 166.965 65L166.963 67ZM170.17 68.3303C171.02 69.1808 171.499 70.334 171.5 71.5368L173.5 71.5346C173.498 69.8021 172.809 68.1411 171.584 66.9161L170.17 68.3303Z" fill="white" mask="url(#path-12-inside-2_248_1263)"/>
</svg>
